<?xml version="1.0" encoding="UTF-8" standalone="no"?>
<svg
   width="213.025"
   height="49.045"
   version="1.1"
   viewBox="0 0 56.363 12.976"
   id="svg27"
   xmlns="http://www.w3.org/2000/svg"
   xmlns:svg="http://www.w3.org/2000/svg"
   xmlns:rdf="http://www.w3.org/1999/02/22-rdf-syntax-ns#"
   xmlns:cc="http://creativecommons.org/ns#"
   xmlns:dc="http://purl.org/dc/elements/1.1/">
  <g
     id="g301">
    <g
       mask="none"
       id="g299"
       transform="translate(-35.18,-94.934)">
      <path
         fill="currentColor"
         d="m 36.006741,107.9007 c -0.72249,-0.11289 -0.948267,-0.51929 -0.767647,-1.44498 0.09031,-0.47413 0.4064,-1.24177 0.767647,-1.8288 0.361243,-0.6096 0.857953,-1.39982 1.28693,-2.03199 0.2032,-0.29352 0.383823,-0.56445 0.4064,-0.6096 0.04516,-0.0452 0.02257,-0.0677 -0.09031,-0.0452 -0.2032,0.0226 -0.270933,-0.0677 -0.180623,-0.22578 0.09031,-0.11289 0.2032,-0.18062 0.6096,-0.33866 0.09031,-0.0226 0.180623,-0.11289 0.338667,-0.31609 0.316089,-0.42898 1.941689,-2.4384 2.867376,-3.522133 0.428977,-0.51929 0.8128,-0.948267 0.8128,-0.970844 0,0 -0.06773,0 -0.158043,0 -0.293513,0 -0.496713,-0.09031 -0.474133,-0.225779 0.04515,-0.248354 0.29351,-0.361244 0.835376,-0.361244 h 0.361244 l 0.361246,-0.338666 c 0.428977,-0.4064 0.767644,-0.6096 1.015998,-0.677334 0.338666,-0.09031 0.383823,0.04516 0.04516,0.180623 -0.225777,0.11289 -0.948267,0.699911 -0.90311,0.767644 0,0.02257 0.38382,0.02257 0.835377,-0.02257 0.49671,-0.02257 1.761066,-0.04516 3.115733,-0.04516 2.483554,0 2.483554,0 2.370664,0.248356 -0.09031,0.225777 -0.112887,0.225777 -2.167464,0.248354 -1.377246,0.02257 -2.212623,0.06773 -3.025423,0.135466 -0.632177,0.04516 -1.264354,0.09031 -1.444977,0.09031 l -0.29351,0.02257 -0.4064,0.474134 c -1.128887,1.39982 -3.251198,4.063993 -3.296354,4.176883 0,0.0226 0.11289,0.0226 0.248356,0 0.135467,-0.0226 0.970844,-0.0677 1.873954,-0.0903 0.948267,-0.0226 1.851377,-0.0677 2.12231,-0.11289 0.6096,-0.0903 0.722488,-0.0903 0.722488,0.0226 0,0.0226 -0.04515,0.0903 -0.09031,0.11289 -0.112889,0.0903 -1.038577,0.2032 -2.054577,0.24836 -0.745066,0.0226 -1.151466,0.0677 -2.00942,0.2032 -0.564444,0.0903 -1.083733,0.18062 -1.151467,0.18062 -0.09031,0.0226 -0.4064,0.47413 -1.30951,1.89653 -0.857956,1.33209 -1.196623,2.00942 -1.30951,2.61902 -0.09031,0.45156 -0.06773,0.65476 0.09031,0.79022 0.135467,0.13547 0.158044,0.13547 0.880533,0.13547 0.6096,0 0.790221,-0.0226 1.083734,-0.11289 1.083733,-0.27093 3.747907,-1.71591 5.441241,-2.93511 0.180623,-0.13547 0.361243,-0.22578 0.4064,-0.22578 0.112889,0 0.158043,0.18062 0.06773,0.27094 -0.31609,0.33866 -2.754487,1.82879 -4.086577,2.52871 -0.451554,0.22577 -1.467554,0.67733 -1.80622,0.79022 -0.383823,0.13546 -0.925687,0.27093 -1.264354,0.31609 -0.158046,0 -0.31609,0.0226 -0.361246,0.0226 -0.04515,0.0226 -0.180621,0 -0.316087,0 z"
         id="path283" />
      <path
         fill="currentColor"
         d="m 44.857209,105.19137 c -0.11289,-0.0677 -0.180623,-0.18062 -0.180623,-0.31609 0,-0.15804 0.2032,-0.4064 0.587023,-0.74507 0.270933,-0.22577 0.993421,-0.79022 1.10631,-0.85795 0.04516,-0.0226 0.04516,-0.0677 -0.04516,-0.24836 -0.04515,-0.11289 -0.112887,-0.31609 -0.112887,-0.42897 -0.02257,-0.11289 -0.04516,-0.22578 -0.04516,-0.22578 0,0 -0.09031,0.0451 -0.2032,0.11289 -0.180623,0.0903 -0.29351,0.11289 -0.4064,0.0677 -0.135466,-0.0452 0.06773,-0.0677 0.270934,-0.47413 0.2032,-0.38382 0.383823,-0.58702 0.428977,-0.67734 0.158046,-0.29351 0.474133,-0.56444 1.51271,-1.28693 0.270933,-0.158043 0.361246,-0.203199 0.474133,-0.203199 0.2032,0 0.31609,0.09031 0.31609,0.293509 0,0.11289 -0.02257,0.15805 -0.180623,0.31609 -0.248354,0.22578 -1.174044,0.97085 -1.467554,1.15147 l -0.225777,0.36124 0.02257,0.31609 c 0.02257,0.29351 0.11289,0.54187 0.180623,0.54187 0.02257,0 0.135464,-0.0677 0.248354,-0.15805 0.72249,-0.54186 3.160887,-1.98684 3.318933,-1.98684 0.09031,0 0.135467,0.0226 0.158044,0.0903 0.11289,0.18062 0.04516,0.22578 -1.083734,0.88053 -1.061153,0.65476 -1.354666,0.83538 -2.00942,1.4224 -0.248356,0.22578 -0.361246,0.33867 -0.361246,0.38382 0,0.18063 -0.112887,0.33867 -0.316087,0.54187 -0.361244,0.33867 -1.12889,0.90311 -1.53529,1.10631 -0.180621,0.0903 -0.29351,0.0903 -0.451554,0.0226 z"
         id="path285" />
      <path
         fill="currentColor"
         d="m 49.056676,103.92701 c -0.270934,-0.0677 -0.383821,-0.15804 -0.474134,-0.36124 -0.18062,-0.36124 -0.09031,-0.79022 0.31609,-1.35467 0.270933,-0.36124 0.880533,-1.016 1.196621,-1.26435 0.587023,-0.45156 1.174043,-0.56445 1.377243,-0.27093 0.06773,0.13546 0.04516,0.27093 -0.158043,0.49671 -0.09031,0.0903 -0.2032,0.22577 -0.248357,0.29351 -0.135464,0.18062 -0.248354,0.15804 -0.338664,-0.0226 -0.06773,-0.13547 -0.06773,-0.13547 0.02257,-0.24836 0.04516,-0.0677 0.11289,-0.15804 0.158044,-0.18062 0.112889,-0.0903 -0.02257,-0.0451 -0.225777,0.0677 -0.6096,0.36124 -1.557867,1.44497 -1.693334,1.94168 -0.09031,0.38383 0.293511,0.51929 0.948267,0.33867 0.225777,-0.0677 1.354667,-0.49671 1.80622,-0.69991 0.338667,-0.13547 0.948267,-0.58702 2.099734,-1.51271 0.29351,-0.22578 0.564443,-0.4064 0.587023,-0.4064 0.09031,0 0.18062,0.0903 0.135467,0.18062 -0.04516,0.18062 -2.370667,1.94169 -3.048,2.30293 -0.496711,0.29351 -1.241777,0.6096 -1.603021,0.72249 -0.293513,0.0677 -0.6096,0.0677 -0.857956,-0.0226 z"
         id="path287" />
      <path
         fill="currentColor"
         d="m 56.100934,103.4303 c -0.38382,-0.18062 -0.4064,-0.49671 0.11289,-1.4224 0.09031,-0.33866 0.180623,-0.65475 0.2032,-0.69991 0.158044,-0.6096 -0.338667,0.0903 -2.393243,1.64818 -0.338667,0.18062 -0.699911,0.4064 -0.835377,0.49671 -0.135467,0.0677 -0.248357,0.13547 -0.248357,0.15805 0,0.0903 -0.2032,0.24835 -0.316087,0.24835 -0.04516,0 -0.135467,-0.0226 -0.2032,-0.0677 -0.11289,-0.0677 -0.135467,-0.0903 -0.135467,-0.22578 0,-0.2032 0.4064,-0.8128 0.925688,-1.37724 1.10631,-1.4224 1.941687,-2.393246 3.048,-3.88338 0.677333,-0.925687 1.467553,-1.761066 1.873953,-2.167466 0.451557,-0.451554 0.948267,-0.654754 1.151467,-0.474134 0.135467,0.135467 0.06773,0.293513 -0.158044,0.293513 -0.225779,0 -0.632179,0.225777 -2.302933,2.460977 -1.061156,1.422398 -1.399823,1.71591 -2.2352,2.79964 -0.835377,1.10631 -1.128887,1.44498 -1.128887,1.44498 0.02257,0 1.535287,-1.30951 1.693331,-1.4224 0.180623,-0.11289 1.083733,-0.99342 1.603023,-1.2192 0.158043,-0.06773 0.361243,0.0452 0.428977,0.15804 0.06773,0.13547 0.04516,0.31609 -0.158044,1.016 l -0.383823,1.10631 v 0.15805 c 0.2032,0.0903 0.92569,-0.29351 1.196623,-0.36125 0.49671,-0.15804 1.625597,-0.81279 2.077154,-1.19662 0.2032,-0.2032 0.270933,-0.2032 0.338666,-0.0903 0.135467,0.22578 -1.061156,1.08373 -2.867376,1.96427 -0.474134,0.24835 -0.903111,0.65475 -1.286934,0.65475 z"
         id="path289" />
      <path
         fill="currentColor"
         d="m 59.78113,105.4623 c -0.11289,0 -0.2032,0 -0.293511,-0.0451 -0.158046,-0.0452 -0.225779,-0.15805 -0.225779,-0.36125 0,-0.33866 0.2032,-0.88053 0.587023,-1.6256 0.316087,-0.51929 0.632177,-1.03857 0.970844,-1.55786 0.135466,-0.15805 0.225776,-0.31609 0.29351,-0.42898 l 0.09031,-0.18062 -0.677334,-0.0903 -0.158046,-0.0452 -0.270933,-0.15804 c -0.04515,-0.0677 -0.04515,-0.11289 -0.04515,-0.15805 -0.04516,0 -0.04516,-0.0451 -0.04516,-0.13546 0,-0.15805 0.04516,-0.31609 0.158043,-0.49672 0.11289,-0.13546 0.248357,-0.24835 0.383823,-0.361239 0.180623,-0.06773 0.31609,-0.09031 0.428977,-0.09031 h 0.11289 c 0.11289,0.02257 0.180623,0.09031 0.180623,0.2032 v 0.06773 c -0.02257,0.158049 -0.09031,0.293509 -0.2032,0.451559 -0.06773,0.11289 -0.09031,0.18062 -0.09031,0.2032 0.04516,0.0226 0.09031,0.0226 0.158046,0.0226 0.09031,0 0.2032,0.0452 0.338667,0.11288 0.248354,0.0677 0.361244,0.2032 0.361244,0.42898 0,0.13547 -0.06773,0.33867 -0.180624,0.56445 -0.677333,0.83537 -1.061153,1.4224 -1.174043,1.71591 0,0.0226 -0.02257,0.0452 -0.04516,0.0677 -0.338666,0.69991 -0.519287,1.10631 -0.541864,1.24178 0.04515,0 0.135464,-0.0452 0.316088,-0.11289 0.29351,-0.15805 0.948266,-0.6096 1.964266,-1.39982 0.519287,-0.42898 1.083734,-0.97085 1.670754,-1.64818 0.22578,-0.27093 0.428977,-0.49671 0.6096,-0.67733 0.180623,-0.18063 0.270933,-0.27094 0.29351,-0.27094 0.04516,0.0226 0.04516,0.0452 0.04516,0.0677 0,0.11289 -0.11289,0.31609 -0.383823,0.63217 -0.361244,0.42898 -0.812798,1.016 -1.354664,1.71591 -0.541867,0.69992 -1.264357,1.33209 -2.122311,1.91911 -0.428979,0.29352 -0.835379,0.42898 -1.151466,0.42898 z"
         id="path291" />
      <path
         fill="currentColor"
         d="m 62.987157,103.74639 c -0.158043,-0.13546 -0.158043,-0.33866 0.02257,-0.67733 0.112887,-0.22578 0.2032,-0.36125 0.880534,-1.37724 0.158043,-0.2032 0.18062,-0.24836 0.135464,-0.31609 -0.04515,-0.0677 -0.04515,-0.0903 0.02257,-0.15805 0.04515,-0.0452 0.112887,-0.0903 0.18062,-0.0903 0.06773,-0.0226 0.451556,-0.38382 0.564446,-0.51929 0.338667,-0.38382 0.49671,-0.632176 0.654754,-0.632176 0.135467,0 0.248356,0.135466 0.2032,0.248356 -0.02257,0.13547 -0.29351,0.45156 -0.49671,0.72249 -0.225777,0.31609 -0.51929,0.51929 -1.241777,1.6256 -0.31609,0.45155 -0.51929,0.67733 -0.474133,0.69991 0,0.0226 0.225776,-0.0677 0.474133,-0.18062 1.4224,-0.6096 2.21262,-1.28694 3.364087,-2.16747 0.248356,-0.24835 0.31609,-0.2032 0.361244,-0.2032 0.112889,0 0.225779,0.13547 0.2032,0.24836 -0.02257,0.0452 -0.112888,0.18062 -0.225777,0.27093 -0.09031,0.0903 -0.4064,0.29351 -0.541867,0.42898 -0.4064,0.36124 -1.535287,1.17404 -1.91911,1.4224 -0.270934,0.18062 -1.016,0.54186 -1.354667,0.67733 -0.135467,0.0452 -0.338667,0.0677 -0.451554,0.0677 -0.2032,0 -0.248356,-0.0226 -0.361246,-0.0903 z m 2.935111,-4.560706 c -0.06773,-0.06773 -0.06773,-0.09031 0.02257,-0.225777 0.09031,-0.135467 0.180621,-0.180623 0.474131,-0.293513 0.180623,-0.09031 0.361246,-0.18062 0.361246,-0.18062 0.04515,-0.06773 0.180621,-0.04516 0.180621,0 0,0.09031 -0.2032,0.428976 -0.29351,0.519287 -0.09031,0.112889 -0.428977,0.248356 -0.587023,0.248356 -0.04515,0 -0.112888,-0.02257 -0.158044,-0.06773 z"
         id="path293" />
      <path
         fill="currentColor"
         d="m 66.170613,103.92701 c -0.270933,-0.0677 -0.383823,-0.15804 -0.474133,-0.36124 -0.180623,-0.36124 -0.09031,-0.79022 0.316087,-1.35467 0.270933,-0.36124 0.880533,-1.016 1.196623,-1.26435 0.587021,-0.45156 1.174044,-0.56445 1.377244,-0.27093 0.06773,0.13546 0.04516,0.27093 -0.158044,0.49671 -0.09031,0.0903 -0.2032,0.22577 -0.248356,0.29351 -0.135467,0.18062 -0.248357,0.15804 -0.338667,-0.0226 -0.06773,-0.13547 -0.06773,-0.13547 0.02257,-0.24836 0.04516,-0.0677 0.11289,-0.15804 0.158046,-0.18062 0.112887,-0.0903 -0.02257,-0.0451 -0.225779,0.0677 -0.6096,0.36124 -1.557864,1.44497 -1.693331,1.94168 -0.09031,0.38383 0.29351,0.51929 0.948264,0.33867 0.22578,-0.0677 1.354667,-0.49671 1.806223,-0.69991 0.338667,-0.13547 0.948267,-0.58702 2.099731,-1.51271 0.293513,-0.22578 0.564446,-0.4064 0.587023,-0.4064 0.09031,0 0.180623,0.0903 0.135467,0.18062 -0.04516,0.18062 -2.370667,1.94169 -3.047998,2.30293 -0.496713,0.29351 -1.241779,0.6096 -1.603023,0.72249 -0.29351,0.0677 -0.6096,0.0677 -0.857954,-0.0226 z"
         id="path295" />
      <path
         fill="currentColor"
         d="m 76.578959,107.20079 c -0.135467,-0.22578 -0.158043,-0.38382 -0.04516,-0.79022 0.04516,-0.2032 0.135466,-0.51929 0.2032,-0.67733 0.29351,-0.79023 1.174043,-2.57387 1.693333,-3.4544 0.158044,-0.24836 0.270933,-0.45156 0.270933,-0.47414 -0.02257,0 -0.180623,0.11289 -0.4064,0.24836 -0.654756,0.42898 -1.535287,0.8128 -2.41582,1.03858 -0.6096,0.15804 -1.33209,0.2032 -1.580444,0.0903 -0.428979,-0.15805 -0.541866,-0.47414 -0.496713,-1.19662 0.02257,-0.27094 0.02257,-0.49671 0.02257,-0.49671 -0.02257,0 -0.451556,0.36124 -0.925689,0.79022 -0.925687,0.79022 -1.670754,1.37724 -1.986844,1.51271 -0.677333,0.31609 -0.90311,-0.36125 -0.474133,-1.35467 0.225777,-0.49671 1.038577,-1.87395 1.91911,-3.228619 0.248356,-0.4064 0.474133,-0.745067 0.474133,-0.745067 0,-0.02257 -0.519287,-0.02257 -1.174043,-0.04515 -1.4224,-0.02257 -1.91911,-0.11289 -1.91911,-0.31609 0,-0.180623 0.02257,-0.180623 1.264353,-0.2032 0.654757,0 1.4224,-0.02257 1.715911,-0.02257 l 0.541866,-0.04516 0.270934,-0.361243 c 0.587023,-0.835377 0.970846,-1.309511 1.580443,-1.896534 0.541867,-0.541866 0.83538,-0.69991 0.970846,-0.519287 0.112887,0.135467 0.06773,0.835377 -0.04516,0.812797 -0.02257,0 -0.06773,-0.09031 -0.06773,-0.2032 -0.06773,-0.38382 -0.06773,-0.361243 -0.2032,-0.248353 -0.180624,0.158043 -0.8128,0.835377 -1.083734,1.174043 -0.29351,0.361244 -0.835377,1.128887 -0.835377,1.196621 0,0.02257 0.09031,0.02257 0.270934,0 0.158043,0 0.677333,-0.04515 1.128887,-0.06773 0.474133,-0.04515 1.377246,-0.112887 2.032,-0.158043 1.30951,-0.112887 3.567287,-0.248354 3.95111,-0.248354 0.158043,0 0.29351,-0.02257 0.338667,-0.04516 0.02257,-0.04516 0.225776,-0.270934 0.4064,-0.51929 0.8128,-1.038577 1.30951,-1.467554 1.49013,-1.264354 0.11289,0.112887 -0.02257,0.4064 -0.541864,1.332087 -0.11289,0.2032 -0.2032,0.383823 -0.180623,0.383823 0,0.02257 0.6096,0 1.354667,0 1.89653,-0.06773 4.199464,0 5.712174,0.158044 0.6096,0.04516 1.53529,0.180623 1.603023,0.225777 0.112887,0.04516 0.158044,0.135466 0.112887,0.248356 -0.06773,0.180623 -0.158043,0.180623 -0.745066,0.09031 -0.632177,-0.09031 -1.106311,-0.135466 -1.896531,-0.18062 -0.83538,-0.06773 -2.709333,-0.11289 -3.025423,-0.11289 -0.135467,0.02257 -0.948264,0.06773 -1.806221,0.11289 -0.835377,0.04515 -1.580443,0.09031 -1.670753,0.09031 -0.09031,0.04516 -0.2032,0.135467 -0.745067,0.835377 -0.338667,0.428979 -0.835377,1.016 -1.061157,1.30951 -0.451553,0.496719 -0.925687,1.219199 -1.648176,2.438399 -0.677334,1.17405 -1.6256,3.13831 -1.964267,4.13173 -0.04515,0.18063 -0.135464,0.38383 -0.158044,0.45156 -0.06773,0.13547 -0.06773,0.18062 0.02257,0.15804 0.06773,-0.0226 0.06773,-0.0226 0.06773,0.0452 0,0.0677 -0.09031,0.11289 -0.180623,0.11289 -0.04516,0 -0.09031,-0.0452 -0.135467,-0.11289 z m -5.57671,-3.99626 c 0.383823,-0.22578 0.835379,-0.58703 1.670756,-1.30952 0.948267,-0.81279 1.2192,-1.01599 1.4224,-1.01599 0.225777,0 0.248354,0.0677 0.180621,0.76764 -0.06773,0.74507 -0.02257,0.97084 0.180623,1.06115 0.270933,0.15805 0.99342,0.0677 1.896533,-0.24835 1.128887,-0.36125 2.031998,-0.85796 2.777064,-1.51271 0.29351,-0.24836 0.361244,-0.31609 0.6096,-0.79022 0.158044,-0.270936 0.51929,-0.880536 0.8128,-1.354669 0.29351,-0.451554 0.541867,-0.857954 0.541867,-0.880534 0,0 -0.09031,0 -0.2032,0 -0.587023,0.02257 -2.167467,0.135467 -3.025421,0.2032 -1.896533,0.135467 -3.13831,0.22578 -3.770487,0.248357 -0.338666,0.02257 -0.654756,0.04516 -0.677333,0.06773 -0.06773,0.02257 -0.63218,0.92569 -1.399823,2.144886 -0.677333,1.10632 -0.90311,1.53529 -1.10631,1.94169 -0.158044,0.31609 -0.270934,0.83538 -0.2032,0.83538 0.04516,0 0.158043,-0.0677 0.29351,-0.15804 z m 10.476084,-4.763913 c 0.22578,-0.31609 0.42898,-0.564443 0.4064,-0.587023 0,0 -0.04515,0 -0.112887,0 -0.06773,0.02257 -0.158046,0.135467 -0.383823,0.51929 -0.564443,0.880533 -0.541867,0.880533 0.09031,0.06773 z m 0.903113,-1.241777 c 0.04515,-0.04516 0.383821,-0.69991 0.4064,-0.745066 0,-0.04516 -0.6096,0.745066 -0.6096,0.790223 0,0.02257 0.158044,0 0.2032,-0.04516 z"
         id="path297" />
    </g>
  </g>
</svg>
